<mxfile host="app.diagrams.net" agent="Mozilla/5.0 (Windows NT 10.0; Win64; x64) AppleWebKit/537.36 (KHTML, like Gecko) Chrome/137.0.0.0 Safari/537.36" version="28.2.3">
  <diagram name="Página-1" id="65NTWa9vTixoHvyJLuyp">
    <mxGraphModel dx="1186" dy="703" grid="1" gridSize="10" guides="1" tooltips="1" connect="1" arrows="1" fold="1" page="1" pageScale="1" pageWidth="827" pageHeight="1169" math="0" shadow="0">
      <root>
        <mxCell id="0" />
        <mxCell id="1" parent="0" />
        <mxCell id="eFnnyTnAi2UESfnipSbR-25" style="edgeStyle=orthogonalEdgeStyle;rounded=0;orthogonalLoop=1;jettySize=auto;html=1;exitX=0.5;exitY=1;exitDx=0;exitDy=0;endArrow=none;endFill=0;entryX=0.5;entryY=0;entryDx=0;entryDy=0;" edge="1" parent="1" source="f5XwSbRwI6OQG_wg5vea-1" target="eFnnyTnAi2UESfnipSbR-8">
          <mxGeometry relative="1" as="geometry">
            <mxPoint x="420" y="460" as="targetPoint" />
          </mxGeometry>
        </mxCell>
        <mxCell id="eFnnyTnAi2UESfnipSbR-29" style="edgeStyle=orthogonalEdgeStyle;rounded=0;orthogonalLoop=1;jettySize=auto;html=1;exitX=0.75;exitY=1;exitDx=0;exitDy=0;entryX=0.5;entryY=0;entryDx=0;entryDy=0;endArrow=none;endFill=0;" edge="1" parent="1" source="f5XwSbRwI6OQG_wg5vea-1" target="eFnnyTnAi2UESfnipSbR-9">
          <mxGeometry relative="1" as="geometry" />
        </mxCell>
        <mxCell id="eFnnyTnAi2UESfnipSbR-30" style="edgeStyle=orthogonalEdgeStyle;rounded=0;orthogonalLoop=1;jettySize=auto;html=1;exitX=0.25;exitY=1;exitDx=0;exitDy=0;entryX=1;entryY=0.5;entryDx=0;entryDy=0;endArrow=none;endFill=0;" edge="1" parent="1" source="f5XwSbRwI6OQG_wg5vea-1" target="eFnnyTnAi2UESfnipSbR-5">
          <mxGeometry relative="1" as="geometry" />
        </mxCell>
        <mxCell id="eFnnyTnAi2UESfnipSbR-31" style="edgeStyle=orthogonalEdgeStyle;rounded=0;orthogonalLoop=1;jettySize=auto;html=1;exitX=0;exitY=1;exitDx=0;exitDy=0;entryX=1;entryY=0.5;entryDx=0;entryDy=0;endArrow=none;endFill=0;" edge="1" parent="1" source="f5XwSbRwI6OQG_wg5vea-1" target="eFnnyTnAi2UESfnipSbR-4">
          <mxGeometry relative="1" as="geometry" />
        </mxCell>
        <mxCell id="eFnnyTnAi2UESfnipSbR-32" style="edgeStyle=orthogonalEdgeStyle;rounded=0;orthogonalLoop=1;jettySize=auto;html=1;exitX=0;exitY=0.5;exitDx=0;exitDy=0;entryX=1;entryY=0.5;entryDx=0;entryDy=0;endArrow=none;endFill=0;" edge="1" parent="1" source="f5XwSbRwI6OQG_wg5vea-1" target="eFnnyTnAi2UESfnipSbR-3">
          <mxGeometry relative="1" as="geometry" />
        </mxCell>
        <mxCell id="eFnnyTnAi2UESfnipSbR-33" style="edgeStyle=orthogonalEdgeStyle;rounded=0;orthogonalLoop=1;jettySize=auto;html=1;exitX=0;exitY=0;exitDx=0;exitDy=0;entryX=0.5;entryY=1;entryDx=0;entryDy=0;endArrow=none;endFill=0;" edge="1" parent="1" source="f5XwSbRwI6OQG_wg5vea-1" target="eFnnyTnAi2UESfnipSbR-2">
          <mxGeometry relative="1" as="geometry" />
        </mxCell>
        <mxCell id="eFnnyTnAi2UESfnipSbR-35" style="edgeStyle=orthogonalEdgeStyle;rounded=0;orthogonalLoop=1;jettySize=auto;html=1;exitX=0.5;exitY=0;exitDx=0;exitDy=0;entryX=0.5;entryY=1;entryDx=0;entryDy=0;endArrow=none;endFill=0;" edge="1" parent="1" source="f5XwSbRwI6OQG_wg5vea-1" target="eFnnyTnAi2UESfnipSbR-1">
          <mxGeometry relative="1" as="geometry" />
        </mxCell>
        <mxCell id="eFnnyTnAi2UESfnipSbR-40" style="edgeStyle=orthogonalEdgeStyle;rounded=0;orthogonalLoop=1;jettySize=auto;html=1;exitX=1;exitY=0.5;exitDx=0;exitDy=0;entryX=0;entryY=0.5;entryDx=0;entryDy=0;endArrow=none;endFill=0;" edge="1" parent="1" source="f5XwSbRwI6OQG_wg5vea-1" target="eFnnyTnAi2UESfnipSbR-15">
          <mxGeometry relative="1" as="geometry" />
        </mxCell>
        <mxCell id="eFnnyTnAi2UESfnipSbR-42" style="edgeStyle=orthogonalEdgeStyle;rounded=0;orthogonalLoop=1;jettySize=auto;html=1;exitX=0.5;exitY=1;exitDx=0;exitDy=0;entryX=0.5;entryY=0;entryDx=0;entryDy=0;endArrow=none;endFill=0;" edge="1" parent="1" source="f5XwSbRwI6OQG_wg5vea-1" target="eFnnyTnAi2UESfnipSbR-6">
          <mxGeometry relative="1" as="geometry" />
        </mxCell>
        <mxCell id="eFnnyTnAi2UESfnipSbR-45" style="edgeStyle=orthogonalEdgeStyle;rounded=0;orthogonalLoop=1;jettySize=auto;html=1;exitX=1;exitY=1;exitDx=0;exitDy=0;entryX=0;entryY=0.5;entryDx=0;entryDy=0;endArrow=none;endFill=0;" edge="1" parent="1" source="f5XwSbRwI6OQG_wg5vea-1" target="eFnnyTnAi2UESfnipSbR-18">
          <mxGeometry relative="1" as="geometry" />
        </mxCell>
        <mxCell id="f5XwSbRwI6OQG_wg5vea-1" value="CARRO" style="rounded=0;whiteSpace=wrap;html=1;" parent="1" vertex="1">
          <mxGeometry x="350" y="330" width="120" height="60" as="geometry" />
        </mxCell>
        <mxCell id="eFnnyTnAi2UESfnipSbR-1" value="Matricula ?" style="ellipse;whiteSpace=wrap;html=1;align=center;" vertex="1" parent="1">
          <mxGeometry x="364" y="200" width="100" height="40" as="geometry" />
        </mxCell>
        <mxCell id="eFnnyTnAi2UESfnipSbR-2" value="Cor" style="ellipse;whiteSpace=wrap;html=1;align=center;" vertex="1" parent="1">
          <mxGeometry x="240" y="220" width="100" height="40" as="geometry" />
        </mxCell>
        <mxCell id="eFnnyTnAi2UESfnipSbR-3" value="NumChasi" style="ellipse;whiteSpace=wrap;html=1;align=center;fontStyle=4;" vertex="1" parent="1">
          <mxGeometry x="150" y="280" width="100" height="40" as="geometry" />
        </mxCell>
        <mxCell id="eFnnyTnAi2UESfnipSbR-4" value="Marca" style="ellipse;whiteSpace=wrap;html=1;align=center;" vertex="1" parent="1">
          <mxGeometry x="140" y="360" width="100" height="40" as="geometry" />
        </mxCell>
        <mxCell id="eFnnyTnAi2UESfnipSbR-5" value="Modelo" style="ellipse;whiteSpace=wrap;html=1;align=center;" vertex="1" parent="1">
          <mxGeometry x="170" y="430" width="100" height="40" as="geometry" />
        </mxCell>
        <mxCell id="eFnnyTnAi2UESfnipSbR-6" value="Versão" style="ellipse;whiteSpace=wrap;html=1;align=center;" vertex="1" parent="1">
          <mxGeometry x="270" y="480" width="100" height="40" as="geometry" />
        </mxCell>
        <mxCell id="eFnnyTnAi2UESfnipSbR-8" value="Combustivel" style="ellipse;whiteSpace=wrap;html=1;align=center;" vertex="1" parent="1">
          <mxGeometry x="390" y="510" width="100" height="40" as="geometry" />
        </mxCell>
        <mxCell id="eFnnyTnAi2UESfnipSbR-9" value="Eletrico" style="ellipse;whiteSpace=wrap;html=1;align=center;dashed=1;" vertex="1" parent="1">
          <mxGeometry x="490" y="470" width="100" height="40" as="geometry" />
        </mxCell>
        <mxCell id="eFnnyTnAi2UESfnipSbR-37" style="edgeStyle=orthogonalEdgeStyle;rounded=0;orthogonalLoop=1;jettySize=auto;html=1;exitX=0.5;exitY=0;exitDx=0;exitDy=0;entryX=0.5;entryY=1;entryDx=0;entryDy=0;endArrow=none;endFill=0;" edge="1" parent="1" source="eFnnyTnAi2UESfnipSbR-10" target="eFnnyTnAi2UESfnipSbR-11">
          <mxGeometry relative="1" as="geometry" />
        </mxCell>
        <mxCell id="eFnnyTnAi2UESfnipSbR-38" style="edgeStyle=orthogonalEdgeStyle;rounded=0;orthogonalLoop=1;jettySize=auto;html=1;exitX=1;exitY=0.5;exitDx=0;exitDy=0;entryX=0;entryY=1;entryDx=0;entryDy=0;endArrow=none;endFill=0;" edge="1" parent="1" source="eFnnyTnAi2UESfnipSbR-10" target="eFnnyTnAi2UESfnipSbR-12">
          <mxGeometry relative="1" as="geometry" />
        </mxCell>
        <mxCell id="eFnnyTnAi2UESfnipSbR-39" style="edgeStyle=orthogonalEdgeStyle;rounded=0;orthogonalLoop=1;jettySize=auto;html=1;exitX=1;exitY=1;exitDx=0;exitDy=0;entryX=0;entryY=0.5;entryDx=0;entryDy=0;endArrow=none;endFill=0;" edge="1" parent="1" source="eFnnyTnAi2UESfnipSbR-10" target="eFnnyTnAi2UESfnipSbR-13">
          <mxGeometry relative="1" as="geometry" />
        </mxCell>
        <mxCell id="eFnnyTnAi2UESfnipSbR-10" value="Motor" style="ellipse;whiteSpace=wrap;html=1;align=center;" vertex="1" parent="1">
          <mxGeometry x="490" y="230" width="100" height="40" as="geometry" />
        </mxCell>
        <mxCell id="eFnnyTnAi2UESfnipSbR-11" value="Cr" style="ellipse;whiteSpace=wrap;html=1;align=center;" vertex="1" parent="1">
          <mxGeometry x="550" y="140" width="100" height="40" as="geometry" />
        </mxCell>
        <mxCell id="eFnnyTnAi2UESfnipSbR-12" value="Ciliadro" style="ellipse;whiteSpace=wrap;html=1;align=center;" vertex="1" parent="1">
          <mxGeometry x="610" y="190" width="100" height="40" as="geometry" />
        </mxCell>
        <mxCell id="eFnnyTnAi2UESfnipSbR-13" value="Binario" style="ellipse;whiteSpace=wrap;html=1;align=center;" vertex="1" parent="1">
          <mxGeometry x="620" y="250" width="100" height="40" as="geometry" />
        </mxCell>
        <mxCell id="eFnnyTnAi2UESfnipSbR-14" value="Turbo?" style="ellipse;whiteSpace=wrap;html=1;align=center;" vertex="1" parent="1">
          <mxGeometry x="590" y="310" width="100" height="40" as="geometry" />
        </mxCell>
        <mxCell id="eFnnyTnAi2UESfnipSbR-43" style="edgeStyle=orthogonalEdgeStyle;rounded=0;orthogonalLoop=1;jettySize=auto;html=1;exitX=1;exitY=0.5;exitDx=0;exitDy=0;entryX=0;entryY=0.5;entryDx=0;entryDy=0;endArrow=none;endFill=0;" edge="1" parent="1" source="eFnnyTnAi2UESfnipSbR-15" target="eFnnyTnAi2UESfnipSbR-16">
          <mxGeometry relative="1" as="geometry" />
        </mxCell>
        <mxCell id="eFnnyTnAi2UESfnipSbR-44" style="edgeStyle=orthogonalEdgeStyle;rounded=0;orthogonalLoop=1;jettySize=auto;html=1;exitX=0.5;exitY=1;exitDx=0;exitDy=0;entryX=0.5;entryY=0;entryDx=0;entryDy=0;endArrow=none;endFill=0;" edge="1" parent="1" source="eFnnyTnAi2UESfnipSbR-15" target="eFnnyTnAi2UESfnipSbR-17">
          <mxGeometry relative="1" as="geometry" />
        </mxCell>
        <mxCell id="eFnnyTnAi2UESfnipSbR-15" value="Dono" style="ellipse;shape=doubleEllipse;margin=3;whiteSpace=wrap;html=1;align=center;" vertex="1" parent="1">
          <mxGeometry x="490" y="340" width="100" height="40" as="geometry" />
        </mxCell>
        <mxCell id="eFnnyTnAi2UESfnipSbR-16" value="Nome" style="ellipse;whiteSpace=wrap;html=1;align=center;" vertex="1" parent="1">
          <mxGeometry x="650" y="370" width="100" height="40" as="geometry" />
        </mxCell>
        <mxCell id="eFnnyTnAi2UESfnipSbR-17" value="Nif" style="ellipse;whiteSpace=wrap;html=1;align=center;" vertex="1" parent="1">
          <mxGeometry x="610" y="420" width="100" height="40" as="geometry" />
        </mxCell>
        <mxCell id="eFnnyTnAi2UESfnipSbR-46" style="edgeStyle=orthogonalEdgeStyle;rounded=0;orthogonalLoop=1;jettySize=auto;html=1;exitX=0.5;exitY=0;exitDx=0;exitDy=0;entryX=0;entryY=0.5;entryDx=0;entryDy=0;endArrow=none;endFill=0;" edge="1" parent="1" source="eFnnyTnAi2UESfnipSbR-18" target="eFnnyTnAi2UESfnipSbR-19">
          <mxGeometry relative="1" as="geometry" />
        </mxCell>
        <mxCell id="eFnnyTnAi2UESfnipSbR-47" style="edgeStyle=orthogonalEdgeStyle;rounded=0;orthogonalLoop=1;jettySize=auto;html=1;exitX=1;exitY=0;exitDx=0;exitDy=0;entryX=0;entryY=0.5;entryDx=0;entryDy=0;endArrow=none;endFill=0;" edge="1" parent="1" source="eFnnyTnAi2UESfnipSbR-18" target="eFnnyTnAi2UESfnipSbR-20">
          <mxGeometry relative="1" as="geometry" />
        </mxCell>
        <mxCell id="eFnnyTnAi2UESfnipSbR-48" style="edgeStyle=orthogonalEdgeStyle;rounded=0;orthogonalLoop=1;jettySize=auto;html=1;exitX=1;exitY=1;exitDx=0;exitDy=0;endArrow=none;endFill=0;" edge="1" parent="1" source="eFnnyTnAi2UESfnipSbR-18" target="eFnnyTnAi2UESfnipSbR-21">
          <mxGeometry relative="1" as="geometry" />
        </mxCell>
        <mxCell id="eFnnyTnAi2UESfnipSbR-49" style="edgeStyle=orthogonalEdgeStyle;rounded=0;orthogonalLoop=1;jettySize=auto;html=1;exitX=0.5;exitY=1;exitDx=0;exitDy=0;endArrow=none;endFill=0;" edge="1" parent="1" source="eFnnyTnAi2UESfnipSbR-18" target="eFnnyTnAi2UESfnipSbR-22">
          <mxGeometry relative="1" as="geometry" />
        </mxCell>
        <mxCell id="eFnnyTnAi2UESfnipSbR-18" value="Custom" style="ellipse;shape=doubleEllipse;margin=3;whiteSpace=wrap;html=1;align=center;" vertex="1" parent="1">
          <mxGeometry x="550" y="585" width="100" height="40" as="geometry" />
        </mxCell>
        <mxCell id="eFnnyTnAi2UESfnipSbR-19" value="Data" style="ellipse;whiteSpace=wrap;html=1;align=center;" vertex="1" parent="1">
          <mxGeometry x="650" y="520" width="100" height="40" as="geometry" />
        </mxCell>
        <mxCell id="eFnnyTnAi2UESfnipSbR-20" value="Tipo" style="ellipse;whiteSpace=wrap;html=1;align=center;" vertex="1" parent="1">
          <mxGeometry x="690" y="585" width="100" height="40" as="geometry" />
        </mxCell>
        <mxCell id="eFnnyTnAi2UESfnipSbR-21" value="Ohs" style="ellipse;whiteSpace=wrap;html=1;align=center;" vertex="1" parent="1">
          <mxGeometry x="650" y="660" width="100" height="40" as="geometry" />
        </mxCell>
        <mxCell id="eFnnyTnAi2UESfnipSbR-22" value="Preço ?" style="ellipse;whiteSpace=wrap;html=1;align=center;" vertex="1" parent="1">
          <mxGeometry x="540" y="680" width="100" height="40" as="geometry" />
        </mxCell>
        <mxCell id="eFnnyTnAi2UESfnipSbR-36" style="edgeStyle=orthogonalEdgeStyle;rounded=0;orthogonalLoop=1;jettySize=auto;html=1;exitX=0.75;exitY=0;exitDx=0;exitDy=0;entryX=0.44;entryY=1;entryDx=0;entryDy=0;entryPerimeter=0;endArrow=none;endFill=0;" edge="1" parent="1" source="f5XwSbRwI6OQG_wg5vea-1" target="eFnnyTnAi2UESfnipSbR-10">
          <mxGeometry relative="1" as="geometry" />
        </mxCell>
        <mxCell id="eFnnyTnAi2UESfnipSbR-41" style="edgeStyle=orthogonalEdgeStyle;rounded=0;orthogonalLoop=1;jettySize=auto;html=1;exitX=0.5;exitY=1;exitDx=0;exitDy=0;entryX=0.4;entryY=0.125;entryDx=0;entryDy=0;entryPerimeter=0;endArrow=none;endFill=0;" edge="1" parent="1" source="eFnnyTnAi2UESfnipSbR-10" target="eFnnyTnAi2UESfnipSbR-14">
          <mxGeometry relative="1" as="geometry" />
        </mxCell>
      </root>
    </mxGraphModel>
  </diagram>
</mxfile>
